<svg xmlns="http://www.w3.org/2000/svg" viewBox="0 0 588 100"><rect x="213" width="27" height="100" transform="translate(453 100) rotate(180)" fill="#7b327c"/><rect x="183" width="32" height="100" transform="translate(398 100) rotate(180)" fill="#893479"/><rect x="293" width="27" height="100" transform="translate(613 100) rotate(180)" fill="#a8594a"/><rect x="318" width="32" height="100" transform="translate(668 100) rotate(180)" fill="#d36f2b"/><rect x="258" width="17" height="100" transform="translate(533 100) rotate(180)" fill="#552d86"/><rect x="348" width="240" height="100" fill="#f68212"/><path d="M478.48,54.34a21.87,21.87,0,0,0-1.58-3V33.71A18.71,18.71,0,0,0,458.19,15h0a18.71,18.71,0,0,0-18.71,18.71v2.56H447V33.71A11.22,11.22,0,0,1,458.18,22.5h0a11.24,11.24,0,0,1,11.22,11.21V44a23.22,23.22,0,0,0-2.68-1.36,22.07,22.07,0,1,0,7,36,22.28,22.28,0,0,0,4.73-7,22.19,22.19,0,0,0,0-17.18ZM458.14,77.5a14.58,14.58,0,1,1,14.58-14.57A14.58,14.58,0,0,1,458.14,77.5Z" fill="#fff"/><circle cx="458.21" cy="63" r="6.18" fill="#fff"/><path d="M386.13,55.81c0,4.88-3,7.84-7.31,7.84s-7-3.34-7-7.57c0-4.46,2.85-7.79,7.24-7.79C383.63,48.29,386.13,51.71,386.13,55.81Zm-10.75.2c0,2.91,1.37,5,3.62,5s3.57-2.17,3.57-5.06c0-2.67-1.28-5-3.6-5S375.38,53.12,375.38,56Z" fill="#fff"/><path d="M389.44,48.73a27,27,0,0,1,4.54-.31,7.16,7.16,0,0,1,4.55,1.19,4.35,4.35,0,0,1,1.59,3.44,4.74,4.74,0,0,1-1.37,3.53,6.86,6.86,0,0,1-4.83,1.57,9.4,9.4,0,0,1-1.15-.06V63.4h-3.33Zm3.33,6.75a4.89,4.89,0,0,0,1.12.09c1.79,0,2.9-.91,2.9-2.43s-1-2.18-2.63-2.18a5.58,5.58,0,0,0-1.39.13Z" fill="#fff"/><path d="M412.21,57.11h-5.47v3.54h6.11V63.4h-9.49V48.53h9.18v2.76h-5.8v3.09h5.47Z" fill="#fff"/><path d="M416.25,63.4V48.53h3.93L423.27,54a43.3,43.3,0,0,1,2.43,5.1h.06a55.45,55.45,0,0,1-.28-6.2V48.53h3.09V63.4H425l-3.18-5.73a53.47,53.47,0,0,1-2.58-5.26l-.07,0c.09,2,.13,4.06.13,6.48V63.4Z" fill="#fff"/><path d="M489.25,59.59l-1.06,3.81H484.7l4.55-14.87h4.41l4.61,14.87h-3.62l-1.14-3.81ZM493,57.07l-.93-3.16c-.26-.88-.53-2-.75-2.86h0c-.22.88-.44,2-.68,2.86l-.89,3.16Z" fill="#fff"/><path d="M511.74,63a9.77,9.77,0,0,1-3.82.64c-5.14,0-7.79-3.2-7.79-7.44,0-5.08,3.62-7.9,8.12-7.9a8.73,8.73,0,0,1,3.66.66l-.68,2.67a7.23,7.23,0,0,0-2.83-.55c-2.67,0-4.74,1.61-4.74,4.92,0,3,1.76,4.85,4.77,4.85a8.54,8.54,0,0,0,2.8-.48Z" fill="#fff"/><path d="M525.31,63a9.77,9.77,0,0,1-3.82.64c-5.14,0-7.79-3.2-7.79-7.44,0-5.08,3.62-7.9,8.12-7.9a8.79,8.79,0,0,1,3.67.66l-.69,2.67a7.17,7.17,0,0,0-2.82-.55c-2.67,0-4.75,1.61-4.75,4.92,0,3,1.77,4.85,4.77,4.85a8.54,8.54,0,0,0,2.8-.48Z" fill="#fff"/><path d="M537.47,57.11H532v3.54h6.11V63.4h-9.49V48.53h9.18v2.76H532v3.09h5.47Z" fill="#fff"/><path d="M541.62,59.94a8.63,8.63,0,0,0,3.73.93c1.55,0,2.36-.64,2.36-1.61s-.7-1.46-2.49-2.1c-2.47-.86-4.09-2.23-4.09-4.39,0-2.54,2.12-4.48,5.63-4.48a9.07,9.07,0,0,1,3.8.75l-.75,2.71a7.07,7.07,0,0,0-3.11-.7c-1.46,0-2.17.66-2.17,1.43,0,1,.84,1.37,2.76,2.1,2.63,1,3.86,2.34,3.86,4.43,0,2.5-1.92,4.62-6,4.62a9.72,9.72,0,0,1-4.21-.91Z" fill="#fff"/><path d="M554.64,59.94a8.67,8.67,0,0,0,3.73.93c1.55,0,2.36-.64,2.36-1.61s-.7-1.46-2.49-2.1c-2.47-.86-4.08-2.23-4.08-4.39,0-2.54,2.11-4.48,5.62-4.48a9.07,9.07,0,0,1,3.8.75l-.75,2.71a7.07,7.07,0,0,0-3.11-.7c-1.46,0-2.17.66-2.17,1.43,0,1,.84,1.37,2.76,2.1,2.63,1,3.87,2.34,3.87,4.43,0,2.5-1.92,4.62-6,4.62a9.75,9.75,0,0,1-4.21-.91Z" fill="#fff"/><rect width="185" height="100" fill="#983675"/><path d="M94.26,57.48a42.89,42.89,0,0,1-12.57-5.36c-2.45-1.44-2.49-1.44-8.86-.78-11.22,1.18-24.31-.92-35.66-5.7-10.14-4.28-18.51-10-9.89-6.71,11.32,4.26,20.23,5,29.07,2.33A103.52,103.52,0,0,0,79,31.32C103.17,17.69,111,14.9,124.8,15a51.62,51.62,0,0,1,23.7,5.57c5.51,2.71,12.59,7.14,12.14,7.6a20.85,20.85,0,0,1-5-.92c-15.87-4-28.26-1.06-48.37,11.53C98.85,44.06,94.67,46.2,89.22,48c-3.85,1.29-4.06,1.44-2.72,2a40.47,40.47,0,0,0,5.74,1.21c8,1.21,15.8-.83,26-6.84,7.25-4.28,11.21-6,15.68-6.9C140.82,36.1,149,38,157,42.7c4.5,2.67,4.42,3.36-.22,2-6.6-2-13-.72-22,4.25-15.52,8.61-19,9.76-29.42,9.7a48,48,0,0,1-11.13-1.15Z" fill="#fff"/><path d="M25.27,79.38V61.75H40.94v2.11H28.81v5.52H40.24v2.1H28.81v7.9Z" fill="#fff"/><path d="M44.61,79.38V61.16h3.47V79.38Z" fill="#fff"/><path d="M69.08,66.9,60.93,80.4a8.49,8.49,0,0,1-3.38,3.23,15,15,0,0,1-5,1.37l-.77-1.93a13.39,13.39,0,0,0,3.73-1,4.92,4.92,0,0,0,2-1.89l.62-1L50.81,66.9h3.71L60,76.56l5.58-9.66Z" fill="#fff"/><path d="M74.92,79a13,13,0,0,1-4.11-1.63l1.28-1.88A14,14,0,0,0,75.84,77a18.74,18.74,0,0,0,4.36.47,10.13,10.13,0,0,0,4.3-.74A2.31,2.31,0,0,0,86,74.65c0-.76-.48-1.33-1.43-1.72a22.39,22.39,0,0,0-4.5-1.08,32.46,32.46,0,0,1-4.82-1,7.69,7.69,0,0,1-2.94-1.56,3.23,3.23,0,0,1-1.08-2.51A3.8,3.8,0,0,1,72.4,64a7.73,7.73,0,0,1,3.25-1.83,16,16,0,0,1,4.83-.65,20,20,0,0,1,4.87.57,11.58,11.58,0,0,1,3.79,1.61l-1.28,1.88a13.55,13.55,0,0,0-3.5-1.5,14.87,14.87,0,0,0-3.85-.48,9.05,9.05,0,0,0-4.19.8,2.43,2.43,0,0,0-1.52,2.19,2,2,0,0,0,1.33,1.81,18.34,18.34,0,0,0,4.28,1.11,44.91,44.91,0,0,1,5,1,8.43,8.43,0,0,1,3,1.49A3,3,0,0,1,89.6,74.5a3.67,3.67,0,0,1-1.15,2.68A7.58,7.58,0,0,1,85.18,79a17.75,17.75,0,0,1-5,.63A23.06,23.06,0,0,1,74.92,79Z" fill="#fff"/><path d="M109.28,71.61v7.77h-3.5V71.76a2.93,2.93,0,0,0-.88-2.38,4.34,4.34,0,0,0-2.83-.74,5.82,5.82,0,0,0-3.55,1,3.13,3.13,0,0,0-1.33,2.65v7.1H93.72V61.16h3.47v7.67a5.34,5.34,0,0,1,2.39-1.65,9.71,9.71,0,0,1,3.43-.57C107.19,66.61,109.28,68.27,109.28,71.61Z" fill="#fff"/><path d="M129.17,73.19H116.7q.17,4.38,5.58,4.38a11,11,0,0,0,5.51-1.41l1.07,1.78a9.73,9.73,0,0,1-3,1.18,15.62,15.62,0,0,1-3.65.43,11.09,11.09,0,0,1-6.59-1.72,5.5,5.5,0,0,1-2.39-4.71,5.67,5.67,0,0,1,1.06-3.39,6.86,6.86,0,0,1,3-2.31,11,11,0,0,1,4.33-.81,8.63,8.63,0,0,1,5.57,1.63,5.5,5.5,0,0,1,2,4.53ZM118.43,69.3a3.8,3.8,0,0,0-1.59,2.41h9.25a3.4,3.4,0,0,0-1.35-2.42,5.17,5.17,0,0,0-3.09-.83A5.66,5.66,0,0,0,118.43,69.3Z" fill="#fff"/><path d="M148.1,73.19H135.62q.18,4.38,5.58,4.38a11,11,0,0,0,5.51-1.41l1.08,1.78a9.93,9.93,0,0,1-3,1.18,15.65,15.65,0,0,1-3.66.43,11.06,11.06,0,0,1-6.58-1.72,5.48,5.48,0,0,1-2.4-4.71,5.73,5.73,0,0,1,1.06-3.39,6.89,6.89,0,0,1,3-2.31,11,11,0,0,1,4.33-.81,8.62,8.62,0,0,1,5.56,1.63,5.5,5.5,0,0,1,2,4.53ZM137.35,69.3a3.8,3.8,0,0,0-1.59,2.41H145a3.4,3.4,0,0,0-1.35-2.42,5.16,5.16,0,0,0-3.08-.83A5.7,5.7,0,0,0,137.35,69.3Z" fill="#fff"/><path d="M156.48,68.83V75.1a2,2,0,0,0,.78,1.82,3.87,3.87,0,0,0,2.17.53,9.08,9.08,0,0,0,1.84-.2v2a11.35,11.35,0,0,1-2.6.27,7,7,0,0,1-4.2-1.09A3.67,3.67,0,0,1,153,75.3V68.83h-3.39V66.9H153V63.78l3.5-.86v4h4.82v1.93Z" fill="#fff"/><rect x="238" width="22" height="100" transform="translate(498 100) rotate(180)" fill="#6a3081"/><rect x="273" width="22" height="100" transform="translate(568 100) rotate(180)" fill="#7b416a"/></svg>